<svg id="Capa_1" data-name="Capa 1" xmlns="http://www.w3.org/2000/svg" xmlns:xlink="http://www.w3.org/1999/xlink" viewBox="0 0 51.28 53.46"><defs><style>.cls-1{clip-path:url(#clip-path);}.cls-2{clip-path:url(#clip-path-2);}</style><clipPath id="clip-path"><rect x="-49.94" y="156.38" width="104" height="20" rx="3" ry="3"/></clipPath><clipPath id="clip-path-2"><rect x="-49.94" y="126.78" width="104" height="20" rx="3" ry="3"/></clipPath></defs><title>1</title><path d="M3.86,20.66a.94.94,0,0,0,1-1,10.46,10.46,0,0,1,10.4-10.4h31.4l-3.4,3.4a1,1,0,0,0,0,1.4,1,1,0,0,0,1.4,0L49.76,9c.1-.1.2-.2.2-.3a.6.6,0,0,0,.1-.4.6.6,0,0,0-.1-.4c-.1-.1-.1-.2-.2-.3l-5.1-5.1a1,1,0,0,0-1.4,0,1,1,0,0,0,0,1.4l3.4,3.4H15.26a12.46,12.46,0,0,0-12.4,12.4A.94.94,0,0,0,3.86,20.66Z"/><path d="M49.06,33.66a.94.94,0,0,0-1,1,10.46,10.46,0,0,1-10.4,10.4H6.26l3.4-3.4a1,1,0,1,0-1.4-1.4l-5.1,5.1c-.1.1-.2.2-.2.3a.85.85,0,0,0,0,.8c.1.1.1.2.2.3l5.1,5.1a1.08,1.08,0,0,0,.7.3,1.08,1.08,0,0,0,.7-.3,1,1,0,0,0,0-1.4l-3.4-3.4h31.4a12.46,12.46,0,0,0,12.4-12.4A.94.94,0,0,0,49.06,33.66Z"/><path d="M31.06,32.76a5.21,5.21,0,0,1-2.9.9,6,6,0,0,1-5.5-4.3h3a.9.9,0,1,0,0-1.8h-3.4c0-.3-.1-.6-.1-.9a2.77,2.77,0,0,1,.1-.9h3.4a.9.9,0,0,0,.9-.9c0-.5-.6-.7-1-.7h-3a6,6,0,0,1,5.5-4.3,5,5,0,0,1,2.9.9.86.86,0,0,0,1-1.4,6.89,6.89,0,0,0-3.9-1.2,7.83,7.83,0,0,0-7.3,6h-2.1a.9.9,0,0,0,0,1.8h1.7v1.8h-1.7a.9.9,0,0,0,0,1.8h2.1a7.83,7.83,0,0,0,7.3,6,6.89,6.89,0,0,0,3.9-1.2,1,1,0,0,0,.3-1.2C32,32.56,31.46,32.46,31.06,32.76Z"/><rect x="-49.94" y="156.38" width="104" height="20" rx="3" ry="3"/><g class="cls-1"><rect x="-875.94" y="-199.62" width="1200" height="689"/></g><rect x="-49.94" y="126.78" width="104" height="20" rx="3" ry="3"/><g class="cls-2"><rect x="-875.94" y="-229.22" width="1200" height="689"/></g></svg>