<?xml version="1.0" encoding="utf-8"?>
<!-- Generator: Adobe Illustrator 15.0.0, SVG Export Plug-In . SVG Version: 6.00 Build 0)  -->
<!DOCTYPE svg PUBLIC "-//W3C//DTD SVG 1.1//EN" "http://www.w3.org/Graphics/SVG/1.1/DTD/svg11.dtd">
<svg version="1.1" id="Layer_1" xmlns="http://www.w3.org/2000/svg" xmlns:xlink="http://www.w3.org/1999/xlink" x="0px" y="0px"
	 width="114.904px" height="38.462px" viewBox="0 0 114.904 38.462" enable-background="new 0 0 114.904 38.462"
	 xml:space="preserve">
<g>
	<path fill="#1C75BC" d="M51.91,18.622v-0.078c0-7.836,5.906-14.256,14.374-14.256c5.197,0,8.309,1.732,10.869,4.254l-3.859,4.449
		C71.167,11.062,69,9.88,66.245,9.88c-4.646,0-7.995,3.859-7.995,8.585v0.079c0,4.725,3.268,8.663,7.995,8.663
		c3.15,0,5.078-1.26,7.244-3.229l3.859,3.898C74.514,30.91,71.364,32.8,66.047,32.8C57.934,32.8,51.91,26.539,51.91,18.622z"/>
	<g>
		<path fill="#1C75BC" d="M5.853,4.761h6.694l7.207,19.415l2.6,8.35h-5.355L5.853,4.761z"/>
		<path fill="#1C75BC" d="M20.502,24.265l7.205-19.415h6.537L23.101,32.613L20.502,24.265z"/>
	</g>
	<polygon fill="#1C75BC" points="109.051,32.328 97.237,4.564 91.645,4.564 79.833,32.328 86.014,32.328 94.362,11.85 
		98.006,20.788 91.35,20.788 89.137,26.107 100.176,26.107 102.71,32.328 	"/>
	<g>
		<polygon fill="#1C75BC" points="47.294,5.707 45.783,6.296 42.456,4.632 42.456,4.08 42.456,3.415 42.201,3.161 37.845,4.858 
			37.845,32.076 37.845,32.417 37.845,32.501 38.1,32.671 40.23,31.841 42.938,33.195 42.938,34.623 42.938,34.964 42.938,35.046 
			43.192,35.218 47.549,33.521 47.549,6.626 47.549,5.962 		"/>
		
			<line fill="none" stroke="#FFFFFF" stroke-width="0.2835" stroke-miterlimit="10" x1="40.399" y1="4.204" x2="40.399" y2="31.841"/>
		<line fill="none" stroke="#FFFFFF" stroke-width="0.2835" stroke-miterlimit="10" x1="38.1" y1="4.914" x2="38.1" y2="32.55"/>
		
			<line fill="none" stroke="#FFFFFF" stroke-width="0.2835" stroke-miterlimit="10" x1="43.107" y1="7.666" x2="43.107" y2="35.302"/>
		<line fill="none" stroke="#FFFFFF" stroke-width="0.2835" stroke-miterlimit="10" x1="38.1" y1="5.113" x2="42.456" y2="3.415"/>
		<line fill="none" stroke="#FFFFFF" stroke-width="0.2835" stroke-miterlimit="10" x1="43.08" y1="7.745" x2="47.437" y2="6.047"/>
		<line fill="none" stroke="#FFFFFF" stroke-width="0.2835" stroke-miterlimit="10" x1="40.43" y1="4.21" x2="45.73" y2="6.728"/>
	</g>
</g>
</svg>
